<?xml version="1.0" standalone="no"?><!DOCTYPE svg PUBLIC "-//W3C//DTD SVG 1.1//EN" "http://www.w3.org/Graphics/SVG/1.1/DTD/svg11.dtd"><svg t="1669807021768" class="icon" viewBox="0 0 1024 1024" version="1.1" xmlns="http://www.w3.org/2000/svg" p-id="3615" data-darkreader-inline-fill="" xmlns:xlink="http://www.w3.org/1999/xlink" width="200" height="200"><path d="M962.6 774.9H417.1c-33.8 0-61.4 25-61.4 55.8v66.6c0 30.8 27.5 55.8 61.4 55.8h545.5c33.8 0 61.4-25 61.4-55.8v-66.6c0-30.8-27.5-55.8-61.4-55.8z m16.9 122.4c0 5.4-7 11.3-16.9 11.3H417.1c-10 0-16.9-6-16.9-11.3v-66.6c0-5.4 7-11.3 16.9-11.3h545.5c10 0 16.9 6 16.9 11.3v66.6zM164.8 748.2h-98C30 748.2 0 778.1 0 815v98c0 36.9 30 66.8 66.9 66.8h98c36.8 0 66.8-29.9 66.7-66.8v-98c0-36.8-29.9-66.8-66.8-66.8zM187.1 913c0 12.3-10 22.3-22.3 22.3h-98c-12.3 0-22.3-10-22.3-22.3v-98c0-12.3 10-22.3 22.3-22.3h98c12.3 0 22.3 10 22.3 22.3v98zM962.6 70.9H417.1c-33.8 0-61.4 25-61.4 55.8v66.6c0 30.8 27.5 55.8 61.4 55.8h545.5c33.8 0 61.4-25 61.4-55.8v-66.6c0-30.8-27.5-55.8-61.4-55.8z m16.9 122.5c0 5.4-7 11.3-16.9 11.3H417.1c-10 0-16.9-6-16.9-11.3v-66.6c0-5.4 7-11.3 16.9-11.3h545.5c10 0 16.9 6 16.9 11.3v66.6zM164.8 44.2h-98C30 44.2 0 74.1 0 111v98c0 36.9 30 66.9 66.9 66.9h98c36.8 0 66.8-30 66.7-66.9v-98c0-36.8-29.9-66.8-66.8-66.8zM187.1 209c0 12.3-10 22.3-22.3 22.3h-98c-12.3 0-22.3-10-22.3-22.3v-98c0-12.3 10-22.3 22.3-22.3h98c12.3 0 22.3 10 22.3 22.3v98zM962.6 422.9H417.1c-33.8 0-61.4 25-61.4 55.8v66.6c0 30.8 27.5 55.8 61.4 55.8h545.5c33.8 0 61.4-25 61.4-55.8v-66.6c0-30.8-27.5-55.8-61.4-55.8z m16.9 122.4c0 5.4-7 11.3-16.9 11.3H417.1c-10 0-16.9-6-16.9-11.3v-66.6c0-5.4 7-11.3 16.9-11.3h545.5c10 0 16.9 6 16.9 11.3v66.6zM164.8 396.2h-98C30 396.2 0 426.1 0 463v98c0 36.9 30 66.8 66.9 66.8h98c36.8 0 66.8-29.9 66.7-66.8v-98c0-36.8-29.9-66.8-66.8-66.8zM187.1 561c0 12.3-10 22.3-22.3 22.3h-98c-12.3 0-22.3-10-22.3-22.3v-98c0-12.3 10-22.3 22.3-22.3h98c12.3 0 22.3 10 22.3 22.3v98z" fill="" p-id="3616"></path></svg>